<?xml version="1.0" encoding="UTF-8" standalone="no"?>
<!DOCTYPE svg PUBLIC "-//W3C//DTD SVG 1.1//EN"
 "http://www.w3.org/Graphics/SVG/1.1/DTD/svg11.dtd">
<!-- Generated by graphviz version 2.38.0 (20140413.2041)
 -->
<!-- Title: controllers_diagram Pages: 1 -->
<svg width="1260pt" height="1101pt"
 viewBox="0.00 0.00 1260.40 1101.39" xmlns="http://www.w3.org/2000/svg" xmlns:xlink="http://www.w3.org/1999/xlink">
<g id="graph0" class="graph" transform="scale(1 1) rotate(0) translate(445.15 705.389)">
<title>controllers_diagram</title>
<polygon fill="white" stroke="none" points="-445.15,396 -445.15,-705.389 815.252,-705.389 815.252,396 -445.15,396"/>
<!-- _diagram_info -->
<g id="node1" class="node"><title>_diagram_info</title>
<text text-anchor="start" x="8" y="328.4" font-family="Times,serif" font-size="13.00">Controllers diagram</text>
<text text-anchor="start" x="8" y="342.4" font-family="Times,serif" font-size="13.00">Date: Jul 15 2015 &#45; 07:38</text>
<text text-anchor="start" x="8" y="356.4" font-family="Times,serif" font-size="13.00">Migration version: 20150706121112</text>
<text text-anchor="start" x="8" y="370.4" font-family="Times,serif" font-size="13.00">Generated by RailRoady 1.3.0</text>
<text text-anchor="start" x="8" y="384.4" font-family="Times,serif" font-size="13.00">http://railroady.prestonlee.com</text>
</g>
<!-- ArtistsController -->
<g id="node2" class="node"><title>ArtistsController</title>
<path fill="none" stroke="black" d="M306.24,-457.079C306.24,-457.079 390.24,-457.079 390.24,-457.079 396.24,-457.079 402.24,-463.079 402.24,-469.079 402.24,-469.079 402.24,-553.079 402.24,-553.079 402.24,-559.079 396.24,-565.079 390.24,-565.079 390.24,-565.079 306.24,-565.079 306.24,-565.079 300.24,-565.079 294.24,-559.079 294.24,-553.079 294.24,-553.079 294.24,-469.079 294.24,-469.079 294.24,-463.079 300.24,-457.079 306.24,-457.079"/>
<text text-anchor="middle" x="348.24" y="-549.879" font-family="Times,serif" font-size="14.00">ArtistsController</text>
<polyline fill="none" stroke="black" points="294.24,-542.079 402.24,-542.079 "/>
<text text-anchor="start" x="302.24" y="-526.879" font-family="Times,serif" font-size="14.00">index</text>
<text text-anchor="start" x="302.24" y="-511.879" font-family="Times,serif" font-size="14.00">show</text>
<polyline fill="none" stroke="black" points="294.24,-504.079 402.24,-504.079 "/>
<polyline fill="none" stroke="black" points="294.24,-480.079 402.24,-480.079 "/>
<text text-anchor="start" x="302.24" y="-464.879" font-family="Times,serif" font-size="14.00">_layout</text>
</g>
<!-- Admin::ArtistsController -->
<g id="node3" class="node"><title>Admin::ArtistsController</title>
<path fill="none" stroke="black" d="M-221.637,40.3993C-221.637,40.3993 -84.6372,40.3993 -84.6372,40.3993 -78.6372,40.3993 -72.6372,34.3993 -72.6372,28.3993 -72.6372,28.3993 -72.6372,-55.6007 -72.6372,-55.6007 -72.6372,-61.6007 -78.6372,-67.6007 -84.6372,-67.6007 -84.6372,-67.6007 -221.637,-67.6007 -221.637,-67.6007 -227.637,-67.6007 -233.637,-61.6007 -233.637,-55.6007 -233.637,-55.6007 -233.637,28.3993 -233.637,28.3993 -233.637,34.3993 -227.637,40.3993 -221.637,40.3993"/>
<text text-anchor="middle" x="-153.137" y="-52.4007" font-family="Times,serif" font-size="14.00">Admin::ArtistsController</text>
<polyline fill="none" stroke="black" points="-233.637,-44.6007 -72.6372,-44.6007 "/>
<text text-anchor="start" x="-225.637" y="-29.4007" font-family="Times,serif" font-size="14.00">attributes_hash_is_empty?</text>
<text text-anchor="start" x="-225.637" y="-14.4007" font-family="Times,serif" font-size="14.00">crop_image</text>
<polyline fill="none" stroke="black" points="-233.637,-6.60066 -72.6372,-6.60066 "/>
<polyline fill="none" stroke="black" points="-233.637,17.3993 -72.6372,17.3993 "/>
<text text-anchor="start" x="-225.637" y="32.5993" font-family="Times,serif" font-size="14.00">_layout</text>
</g>
<!-- Admin::CategoriesController -->
<g id="node4" class="node"><title>Admin::CategoriesController</title>
<path fill="none" stroke="black" d="M268.577,-175.058C268.577,-175.058 420.577,-175.058 420.577,-175.058 426.577,-175.058 432.577,-181.058 432.577,-187.058 432.577,-187.058 432.577,-271.058 432.577,-271.058 432.577,-277.058 426.577,-283.058 420.577,-283.058 420.577,-283.058 268.577,-283.058 268.577,-283.058 262.577,-283.058 256.577,-277.058 256.577,-271.058 256.577,-271.058 256.577,-187.058 256.577,-187.058 256.577,-181.058 262.577,-175.058 268.577,-175.058"/>
<text text-anchor="middle" x="344.577" y="-267.858" font-family="Times,serif" font-size="14.00">Admin::CategoriesController</text>
<polyline fill="none" stroke="black" points="256.577,-260.058 432.577,-260.058 "/>
<polyline fill="none" stroke="black" points="256.577,-236.058 432.577,-236.058 "/>
<text text-anchor="start" x="264.577" y="-220.858" font-family="Times,serif" font-size="14.00">after_create_save</text>
<text text-anchor="start" x="264.577" y="-205.858" font-family="Times,serif" font-size="14.00">beginning_of_chain</text>
<polyline fill="none" stroke="black" points="256.577,-198.058 432.577,-198.058 "/>
<text text-anchor="start" x="264.577" y="-182.858" font-family="Times,serif" font-size="14.00">_layout</text>
</g>
<!-- Admin::AttachmentsController -->
<g id="node5" class="node"><title>Admin::AttachmentsController</title>
<path fill="none" stroke="black" d="M636.252,-428.057C636.252,-428.057 799.252,-428.057 799.252,-428.057 805.252,-428.057 811.252,-434.057 811.252,-440.057 811.252,-440.057 811.252,-510.057 811.252,-510.057 811.252,-516.057 805.252,-522.057 799.252,-522.057 799.252,-522.057 636.252,-522.057 636.252,-522.057 630.252,-522.057 624.252,-516.057 624.252,-510.057 624.252,-510.057 624.252,-440.057 624.252,-440.057 624.252,-434.057 630.252,-428.057 636.252,-428.057"/>
<text text-anchor="middle" x="717.752" y="-506.857" font-family="Times,serif" font-size="14.00">Admin::AttachmentsController</text>
<polyline fill="none" stroke="black" points="624.252,-499.057 811.252,-499.057 "/>
<polyline fill="none" stroke="black" points="624.252,-475.057 811.252,-475.057 "/>
<polyline fill="none" stroke="black" points="624.252,-451.057 811.252,-451.057 "/>
<text text-anchor="start" x="632.252" y="-435.857" font-family="Times,serif" font-size="14.00">_layout</text>
</g>
<!-- Admin::LayoutsController -->
<g id="node6" class="node"><title>Admin::LayoutsController</title>
<path fill="none" stroke="black" d="M-30.7113,274.841C-30.7113,274.841 106.289,274.841 106.289,274.841 112.289,274.841 118.289,268.841 118.289,262.841 118.289,262.841 118.289,192.841 118.289,192.841 118.289,186.841 112.289,180.841 106.289,180.841 106.289,180.841 -30.7113,180.841 -30.7113,180.841 -36.7113,180.841 -42.7113,186.841 -42.7113,192.841 -42.7113,192.841 -42.7113,262.841 -42.7113,262.841 -42.7113,268.841 -36.7113,274.841 -30.7113,274.841"/>
<text text-anchor="middle" x="37.7887" y="196.041" font-family="Times,serif" font-size="14.00">Admin::LayoutsController</text>
<polyline fill="none" stroke="black" points="-42.7113,203.841 118.289,203.841 "/>
<polyline fill="none" stroke="black" points="-42.7113,227.841 118.289,227.841 "/>
<polyline fill="none" stroke="black" points="-42.7113,251.841 118.289,251.841 "/>
<text text-anchor="start" x="-34.7113" y="267.041" font-family="Times,serif" font-size="14.00">_layout</text>
</g>
<!-- Admin::LayoutPartialsController -->
<g id="node7" class="node"><title>Admin::LayoutPartialsController</title>
<path fill="none" stroke="black" d="M-167.627,-196.307C-167.627,-196.307 5.37325,-196.307 5.37325,-196.307 11.3732,-196.307 17.3732,-202.307 17.3732,-208.307 17.3732,-208.307 17.3732,-278.307 17.3732,-278.307 17.3732,-284.307 11.3732,-290.307 5.37325,-290.307 5.37325,-290.307 -167.627,-290.307 -167.627,-290.307 -173.627,-290.307 -179.627,-284.307 -179.627,-278.307 -179.627,-278.307 -179.627,-208.307 -179.627,-208.307 -179.627,-202.307 -173.627,-196.307 -167.627,-196.307"/>
<text text-anchor="middle" x="-81.1268" y="-275.107" font-family="Times,serif" font-size="14.00">Admin::LayoutPartialsController</text>
<polyline fill="none" stroke="black" points="-179.627,-267.307 17.3732,-267.307 "/>
<polyline fill="none" stroke="black" points="-179.627,-243.307 17.3732,-243.307 "/>
<polyline fill="none" stroke="black" points="-179.627,-219.307 17.3732,-219.307 "/>
<text text-anchor="start" x="-171.627" y="-204.107" font-family="Times,serif" font-size="14.00">_layout</text>
</g>
<!-- Admin::ItemsController -->
<g id="node8" class="node"><title>Admin::ItemsController</title>
<path fill="none" stroke="black" d="M60.2896,-176.467C60.2896,-176.467 185.29,-176.467 185.29,-176.467 191.29,-176.467 197.29,-182.467 197.29,-188.467 197.29,-188.467 197.29,-258.467 197.29,-258.467 197.29,-264.467 191.29,-270.467 185.29,-270.467 185.29,-270.467 60.2896,-270.467 60.2896,-270.467 54.2896,-270.467 48.2896,-264.467 48.2896,-258.467 48.2896,-258.467 48.2896,-188.467 48.2896,-188.467 48.2896,-182.467 54.2896,-176.467 60.2896,-176.467"/>
<text text-anchor="middle" x="122.79" y="-255.267" font-family="Times,serif" font-size="14.00">Admin::ItemsController</text>
<polyline fill="none" stroke="black" points="48.2896,-247.467 197.29,-247.467 "/>
<polyline fill="none" stroke="black" points="48.2896,-223.467 197.29,-223.467 "/>
<polyline fill="none" stroke="black" points="48.2896,-199.467 197.29,-199.467 "/>
<text text-anchor="start" x="56.2896" y="-184.267" font-family="Times,serif" font-size="14.00">_layout</text>
</g>
<!-- Admin::UsersController -->
<g id="node9" class="node"><title>Admin::UsersController</title>
<path fill="none" stroke="black" d="M-383.821,-175.655C-383.821,-175.655 -258.821,-175.655 -258.821,-175.655 -252.821,-175.655 -246.821,-181.655 -246.821,-187.655 -246.821,-187.655 -246.821,-257.655 -246.821,-257.655 -246.821,-263.655 -252.821,-269.655 -258.821,-269.655 -258.821,-269.655 -383.821,-269.655 -383.821,-269.655 -389.821,-269.655 -395.821,-263.655 -395.821,-257.655 -395.821,-257.655 -395.821,-187.655 -395.821,-187.655 -395.821,-181.655 -389.821,-175.655 -383.821,-175.655"/>
<text text-anchor="middle" x="-321.321" y="-254.455" font-family="Times,serif" font-size="14.00">Admin::UsersController</text>
<polyline fill="none" stroke="black" points="-395.821,-246.655 -246.821,-246.655 "/>
<polyline fill="none" stroke="black" points="-395.821,-222.655 -246.821,-222.655 "/>
<polyline fill="none" stroke="black" points="-395.821,-198.655 -246.821,-198.655 "/>
<text text-anchor="start" x="-387.821" y="-183.455" font-family="Times,serif" font-size="14.00">_layout</text>
</g>
<!-- Admin::ItemCategoriesController -->
<g id="node10" class="node"><title>Admin::ItemCategoriesController</title>
<path fill="none" stroke="black" d="M-337.258,293.906C-337.258,293.906 -160.258,293.906 -160.258,293.906 -154.258,293.906 -148.258,287.906 -148.258,281.906 -148.258,281.906 -148.258,211.906 -148.258,211.906 -148.258,205.906 -154.258,199.906 -160.258,199.906 -160.258,199.906 -337.258,199.906 -337.258,199.906 -343.258,199.906 -349.258,205.906 -349.258,211.906 -349.258,211.906 -349.258,281.906 -349.258,281.906 -349.258,287.906 -343.258,293.906 -337.258,293.906"/>
<text text-anchor="middle" x="-248.758" y="215.106" font-family="Times,serif" font-size="14.00">Admin::ItemCategoriesController</text>
<polyline fill="none" stroke="black" points="-349.258,222.906 -148.258,222.906 "/>
<polyline fill="none" stroke="black" points="-349.258,246.906 -148.258,246.906 "/>
<polyline fill="none" stroke="black" points="-349.258,270.906 -148.258,270.906 "/>
<text text-anchor="start" x="-341.258" y="286.106" font-family="Times,serif" font-size="14.00">_layout</text>
</g>
<!-- Admin::SiteSectionsController -->
<g id="node11" class="node"><title>Admin::SiteSectionsController</title>
<path fill="none" stroke="black" d="M226.297,51.265C226.297,51.265 387.297,51.265 387.297,51.265 393.297,51.265 399.297,45.265 399.297,39.265 399.297,39.265 399.297,-30.735 399.297,-30.735 399.297,-36.735 393.297,-42.735 387.297,-42.735 387.297,-42.735 226.297,-42.735 226.297,-42.735 220.297,-42.735 214.297,-36.735 214.297,-30.735 214.297,-30.735 214.297,39.265 214.297,39.265 214.297,45.265 220.297,51.265 226.297,51.265"/>
<text text-anchor="middle" x="306.797" y="-27.535" font-family="Times,serif" font-size="14.00">Admin::SiteSectionsController</text>
<polyline fill="none" stroke="black" points="214.297,-19.735 399.297,-19.735 "/>
<polyline fill="none" stroke="black" points="214.297,4.26504 399.297,4.26504 "/>
<polyline fill="none" stroke="black" points="214.297,28.265 399.297,28.265 "/>
<text text-anchor="start" x="222.297" y="43.465" font-family="Times,serif" font-size="14.00">_layout</text>
</g>
<!-- Admin::FrontPagesController -->
<g id="node12" class="node"><title>Admin::FrontPagesController</title>
<path fill="none" stroke="black" d="M-429.15,105.952C-429.15,105.952 -274.15,105.952 -274.15,105.952 -268.15,105.952 -262.15,99.9521 -262.15,93.9521 -262.15,93.9521 -262.15,23.9521 -262.15,23.9521 -262.15,17.9521 -268.15,11.9521 -274.15,11.9521 -274.15,11.9521 -429.15,11.9521 -429.15,11.9521 -435.15,11.9521 -441.15,17.9521 -441.15,23.9521 -441.15,23.9521 -441.15,93.9521 -441.15,93.9521 -441.15,99.9521 -435.15,105.952 -429.15,105.952"/>
<text text-anchor="middle" x="-351.65" y="27.1521" font-family="Times,serif" font-size="14.00">Admin::FrontPagesController</text>
<polyline fill="none" stroke="black" points="-441.15,34.9521 -262.15,34.9521 "/>
<polyline fill="none" stroke="black" points="-441.15,58.9521 -262.15,58.9521 "/>
<polyline fill="none" stroke="black" points="-441.15,82.9521 -262.15,82.9521 "/>
<text text-anchor="start" x="-433.15" y="98.1521" font-family="Times,serif" font-size="14.00">_layout</text>
</g>
<!-- Admin::PeopleController -->
<g id="node13" class="node"><title>Admin::PeopleController</title>
<path fill="none" stroke="black" d="M251.885,273.525C251.885,273.525 382.885,273.525 382.885,273.525 388.885,273.525 394.885,267.525 394.885,261.525 394.885,261.525 394.885,191.525 394.885,191.525 394.885,185.525 388.885,179.525 382.885,179.525 382.885,179.525 251.885,179.525 251.885,179.525 245.885,179.525 239.885,185.525 239.885,191.525 239.885,191.525 239.885,261.525 239.885,261.525 239.885,267.525 245.885,273.525 251.885,273.525"/>
<text text-anchor="middle" x="317.385" y="194.725" font-family="Times,serif" font-size="14.00">Admin::PeopleController</text>
<polyline fill="none" stroke="black" points="239.885,202.525 394.885,202.525 "/>
<polyline fill="none" stroke="black" points="239.885,226.525 394.885,226.525 "/>
<polyline fill="none" stroke="black" points="239.885,250.525 394.885,250.525 "/>
<text text-anchor="start" x="247.885" y="265.725" font-family="Times,serif" font-size="14.00">_layout</text>
</g>
<!-- SessionsController -->
<g id="node14" class="node"><title>SessionsController</title>
<path fill="none" stroke="black" d="M594.485,-294.2C594.485,-294.2 689.485,-294.2 689.485,-294.2 695.485,-294.2 701.485,-300.2 701.485,-306.2 701.485,-306.2 701.485,-390.2 701.485,-390.2 701.485,-396.2 695.485,-402.2 689.485,-402.2 689.485,-402.2 594.485,-402.2 594.485,-402.2 588.485,-402.2 582.485,-396.2 582.485,-390.2 582.485,-390.2 582.485,-306.2 582.485,-306.2 582.485,-300.2 588.485,-294.2 594.485,-294.2"/>
<text text-anchor="middle" x="641.985" y="-387" font-family="Times,serif" font-size="14.00">SessionsController</text>
<polyline fill="none" stroke="black" points="582.485,-379.2 701.485,-379.2 "/>
<text text-anchor="start" x="590.485" y="-364" font-family="Times,serif" font-size="14.00">create</text>
<text text-anchor="start" x="590.485" y="-349" font-family="Times,serif" font-size="14.00">destroy</text>
<polyline fill="none" stroke="black" points="582.485,-341.2 701.485,-341.2 "/>
<polyline fill="none" stroke="black" points="582.485,-317.2 701.485,-317.2 "/>
<text text-anchor="start" x="590.485" y="-302" font-family="Times,serif" font-size="14.00">_layout</text>
</g>
<!-- SectionsController -->
<g id="node15" class="node"><title>SectionsController</title>
<path fill="none" stroke="black" d="M366.794,-592.889C366.794,-592.889 460.794,-592.889 460.794,-592.889 466.794,-592.889 472.794,-598.889 472.794,-604.889 472.794,-604.889 472.794,-688.889 472.794,-688.889 472.794,-694.889 466.794,-700.889 460.794,-700.889 460.794,-700.889 366.794,-700.889 366.794,-700.889 360.794,-700.889 354.794,-694.889 354.794,-688.889 354.794,-688.889 354.794,-604.889 354.794,-604.889 354.794,-598.889 360.794,-592.889 366.794,-592.889"/>
<text text-anchor="middle" x="413.794" y="-685.689" font-family="Times,serif" font-size="14.00">SectionsController</text>
<polyline fill="none" stroke="black" points="354.794,-677.889 472.794,-677.889 "/>
<text text-anchor="start" x="362.794" y="-662.689" font-family="Times,serif" font-size="14.00">index</text>
<text text-anchor="start" x="362.794" y="-647.689" font-family="Times,serif" font-size="14.00">show</text>
<polyline fill="none" stroke="black" points="354.794,-639.889 472.794,-639.889 "/>
<polyline fill="none" stroke="black" points="354.794,-615.889 472.794,-615.889 "/>
<text text-anchor="start" x="362.794" y="-600.689" font-family="Times,serif" font-size="14.00">_layout</text>
</g>
<!-- ApplicationController -->
<g id="node16" class="node"><title>ApplicationController</title>
<path fill="none" stroke="black" d="M475.486,-424.103C475.486,-424.103 587.486,-424.103 587.486,-424.103 593.486,-424.103 599.486,-430.103 599.486,-436.103 599.486,-436.103 599.486,-566.103 599.486,-566.103 599.486,-572.103 593.486,-578.103 587.486,-578.103 587.486,-578.103 475.486,-578.103 475.486,-578.103 469.486,-578.103 463.486,-572.103 463.486,-566.103 463.486,-566.103 463.486,-436.103 463.486,-436.103 463.486,-430.103 469.486,-424.103 475.486,-424.103"/>
<text text-anchor="middle" x="531.486" y="-562.903" font-family="Times,serif" font-size="14.00">ApplicationController</text>
<polyline fill="none" stroke="black" points="463.486,-555.103 599.486,-555.103 "/>
<polyline fill="none" stroke="black" points="463.486,-531.103 599.486,-531.103 "/>
<polyline fill="none" stroke="black" points="463.486,-507.103 599.486,-507.103 "/>
<text text-anchor="start" x="471.486" y="-491.903" font-family="Times,serif" font-size="14.00">_layout</text>
<text text-anchor="start" x="471.486" y="-476.903" font-family="Times,serif" font-size="14.00">check_user_data</text>
<text text-anchor="start" x="471.486" y="-461.903" font-family="Times,serif" font-size="14.00">current_user</text>
<text text-anchor="start" x="471.486" y="-446.903" font-family="Times,serif" font-size="14.00">set_locale</text>
<text text-anchor="start" x="471.486" y="-431.903" font-family="Times,serif" font-size="14.00">signed_in?</text>
</g>
<!-- ApplicationController&#45;&gt;ArtistsController -->
<g id="edge1" class="edge"><title>ApplicationController&#45;&gt;ArtistsController</title>
<path fill="none" stroke="black" d="M463.252,-504.818C443.206,-505.909 421.559,-507.087 402.511,-508.124"/>
</g>
<!-- ApplicationController&#45;&gt;Admin::AttachmentsController -->
<g id="edge4" class="edge"><title>ApplicationController&#45;&gt;Admin::AttachmentsController</title>
<path fill="none" stroke="black" d="M599.523,-491.589C607.525,-490.47 615.794,-489.314 624.069,-488.157"/>
</g>
<!-- ApplicationController&#45;&gt;SessionsController -->
<g id="edge13" class="edge"><title>ApplicationController&#45;&gt;SessionsController</title>
<path fill="none" stroke="black" d="M587.383,-423.756C592.629,-416.497 597.867,-409.248 602.908,-402.273"/>
</g>
<!-- ApplicationController&#45;&gt;SectionsController -->
<g id="edge14" class="edge"><title>ApplicationController&#45;&gt;SectionsController</title>
<path fill="none" stroke="black" d="M469.193,-578.265C465.223,-583.182 461.275,-588.074 457.419,-592.849"/>
</g>
<!-- UsersController -->
<g id="node17" class="node"><title>UsersController</title>
<path fill="none" stroke="black" d="M626.663,-575.337C626.663,-575.337 705.663,-575.337 705.663,-575.337 711.663,-575.337 717.663,-581.337 717.663,-587.337 717.663,-587.337 717.663,-686.337 717.663,-686.337 717.663,-692.337 711.663,-698.337 705.663,-698.337 705.663,-698.337 626.663,-698.337 626.663,-698.337 620.663,-698.337 614.663,-692.337 614.663,-686.337 614.663,-686.337 614.663,-587.337 614.663,-587.337 614.663,-581.337 620.663,-575.337 626.663,-575.337"/>
<text text-anchor="middle" x="666.163" y="-683.137" font-family="Times,serif" font-size="14.00">UsersController</text>
<polyline fill="none" stroke="black" points="614.663,-675.337 717.663,-675.337 "/>
<text text-anchor="start" x="622.663" y="-660.137" font-family="Times,serif" font-size="14.00">edit</text>
<text text-anchor="start" x="622.663" y="-645.137" font-family="Times,serif" font-size="14.00">update</text>
<polyline fill="none" stroke="black" points="614.663,-637.337 717.663,-637.337 "/>
<polyline fill="none" stroke="black" points="614.663,-613.337 717.663,-613.337 "/>
<text text-anchor="start" x="622.663" y="-598.137" font-family="Times,serif" font-size="14.00">_layout</text>
<text text-anchor="start" x="622.663" y="-583.137" font-family="Times,serif" font-size="14.00">user_params</text>
</g>
<!-- ApplicationController&#45;&gt;UsersController -->
<g id="edge15" class="edge"><title>ApplicationController&#45;&gt;UsersController</title>
<path fill="none" stroke="black" d="M599.614,-569.765C604.572,-574.763 609.525,-579.754 614.364,-584.632"/>
</g>
<!-- StaticPagesController -->
<g id="node18" class="node"><title>StaticPagesController</title>
<path fill="none" stroke="black" d="M343.457,-303.865C343.457,-303.865 453.457,-303.865 453.457,-303.865 459.457,-303.865 465.457,-309.865 465.457,-315.865 465.457,-315.865 465.457,-399.865 465.457,-399.865 465.457,-405.865 459.457,-411.865 453.457,-411.865 453.457,-411.865 343.457,-411.865 343.457,-411.865 337.457,-411.865 331.457,-405.865 331.457,-399.865 331.457,-399.865 331.457,-315.865 331.457,-315.865 331.457,-309.865 337.457,-303.865 343.457,-303.865"/>
<text text-anchor="middle" x="398.457" y="-396.665" font-family="Times,serif" font-size="14.00">StaticPagesController</text>
<polyline fill="none" stroke="black" points="331.457,-388.865 465.457,-388.865 "/>
<text text-anchor="start" x="339.457" y="-373.665" font-family="Times,serif" font-size="14.00">about</text>
<text text-anchor="start" x="339.457" y="-358.665" font-family="Times,serif" font-size="14.00">home</text>
<polyline fill="none" stroke="black" points="331.457,-350.865 465.457,-350.865 "/>
<polyline fill="none" stroke="black" points="331.457,-326.865 465.457,-326.865 "/>
<text text-anchor="start" x="339.457" y="-311.665" font-family="Times,serif" font-size="14.00">_layout</text>
</g>
<!-- ApplicationController&#45;&gt;StaticPagesController -->
<g id="edge16" class="edge"><title>ApplicationController&#45;&gt;StaticPagesController</title>
<path fill="none" stroke="black" d="M463.413,-427.805C458.554,-422.574 453.707,-417.355 448.975,-412.26"/>
</g>
<!-- Foundation::Rails::StyleguideController -->
<g id="node19" class="node"><title>Foundation::Rails::StyleguideController</title>
<path fill="none" stroke="black" d="M12,-392.5C12,-392.5 222,-392.5 222,-392.5 228,-392.5 234,-398.5 234,-404.5 234,-404.5 234,-473.5 234,-473.5 234,-479.5 228,-485.5 222,-485.5 222,-485.5 12,-485.5 12,-485.5 6,-485.5 0,-479.5 0,-473.5 0,-473.5 0,-404.5 0,-404.5 0,-398.5 6,-392.5 12,-392.5"/>
<text text-anchor="middle" x="117" y="-470.3" font-family="Times,serif" font-size="14.00">Foundation::Rails::StyleguideController</text>
<polyline fill="none" stroke="black" points="0,-462.5 234,-462.5 "/>
<text text-anchor="start" x="8" y="-447.3" font-family="Times,serif" font-size="14.00">show</text>
<polyline fill="none" stroke="black" points="0,-439.5 234,-439.5 "/>
<polyline fill="none" stroke="black" points="0,-415.5 234,-415.5 "/>
<text text-anchor="start" x="8" y="-400.3" font-family="Times,serif" font-size="14.00">_layout</text>
</g>
<!-- Admin::Auth -->
<g id="node20" class="node"><title>Admin::Auth</title>
<ellipse fill="none" stroke="black" cx="46.1181" cy="5.83144" rx="57.6901" ry="18"/>
<text text-anchor="middle" x="46.1181" y="9.53144" font-family="Times,serif" font-size="14.00">Admin::Auth</text>
</g>
<!-- Admin::Auth&#45;&gt;Admin::ArtistsController -->
<g id="edge2" class="edge"><title>Admin::Auth&#45;&gt;Admin::ArtistsController</title>
<path fill="none" stroke="black" d="M-9.12103,0.444321C-28.7004,-1.46513 -51.1549,-3.65498 -72.4167,-5.72851"/>
</g>
<!-- Admin::Auth&#45;&gt;Admin::CategoriesController -->
<g id="edge3" class="edge"><title>Admin::Auth&#45;&gt;Admin::CategoriesController</title>
<path fill="none" stroke="black" d="M67.5825,-11.0613C110.554,-44.8804 208.777,-122.183 275.92,-175.025"/>
</g>
<!-- Admin::Auth&#45;&gt;Admin::LayoutsController -->
<g id="edge5" class="edge"><title>Admin::Auth&#45;&gt;Admin::LayoutsController</title>
<path fill="none" stroke="black" d="M45.4364,23.9994C44.1659,57.8632 41.3988,131.619 39.5649,180.497"/>
</g>
<!-- Admin::Auth&#45;&gt;Admin::LayoutPartialsController -->
<g id="edge6" class="edge"><title>Admin::Auth&#45;&gt;Admin::LayoutPartialsController</title>
<path fill="none" stroke="black" d="M36.9669,-12.0859C17.5352,-50.1321 -28.3965,-140.064 -56.9099,-195.891"/>
</g>
<!-- Admin::Auth&#45;&gt;Admin::ItemsController -->
<g id="edge7" class="edge"><title>Admin::Auth&#45;&gt;Admin::ItemsController</title>
<path fill="none" stroke="black" d="M52.1343,-12.1612C63.8193,-47.1069 89.9258,-125.182 106.924,-176.017"/>
</g>
<!-- Admin::Auth&#45;&gt;Admin::UsersController -->
<g id="edge8" class="edge"><title>Admin::Auth&#45;&gt;Admin::UsersController</title>
<path fill="none" stroke="black" d="M21.9694,-10.6209C-1.27243,-26.351 -37.4982,-50.5957 -69.4372,-70.8007 -128.448,-108.131 -196.288,-148.911 -246.687,-178.802"/>
</g>
<!-- Admin::Auth&#45;&gt;Admin::ItemCategoriesController -->
<g id="edge9" class="edge"><title>Admin::Auth&#45;&gt;Admin::ItemCategoriesController</title>
<path fill="none" stroke="black" d="M25.383,22.7834C-19.0579,59.1158 -124.83,145.589 -191.234,199.878"/>
</g>
<!-- Admin::Auth&#45;&gt;Admin::SiteSectionsController -->
<g id="edge10" class="edge"><title>Admin::Auth&#45;&gt;Admin::SiteSectionsController</title>
<path fill="none" stroke="black" d="M103.971,5.4838C136.37,5.28912 177.531,5.04179 214.295,4.82088"/>
</g>
<!-- Admin::Auth&#45;&gt;Admin::FrontPagesController -->
<g id="edge11" class="edge"><title>Admin::Auth&#45;&gt;Admin::FrontPagesController</title>
<path fill="none" stroke="black" d="M10.5777,20.126C-11.9601,28.5153 -41.9495,38.4519 -69.4372,43.5993 -133.1,55.5211 -206.142,59.2304 -261.965,60.0267"/>
</g>
<!-- Admin::Auth&#45;&gt;Admin::PeopleController -->
<g id="edge12" class="edge"><title>Admin::Auth&#45;&gt;Admin::PeopleController</title>
<path fill="none" stroke="black" d="M66.9535,22.7825C107.646,55.8888 198.979,130.194 259.368,179.325"/>
</g>
</g>
</svg>
