<?xml version="1.0" encoding="UTF-8" standalone="no"?>
<!DOCTYPE svg PUBLIC "-//W3C//DTD SVG 1.1//EN"
 "http://www.w3.org/Graphics/SVG/1.1/DTD/svg11.dtd">
<!-- Generated by graphviz version 2.38.0 (20140413.2041)
 -->
<!-- Title: models_diagram Pages: 1 -->
<svg width="832pt" height="479pt"
 viewBox="0.00 0.00 832.14 479.00" xmlns="http://www.w3.org/2000/svg" xmlns:xlink="http://www.w3.org/1999/xlink">
<g id="graph0" class="graph" transform="scale(1 1) rotate(0) translate(4 475)">
<title>models_diagram</title>
<polygon fill="white" stroke="none" points="-4,4 -4,-475 828.142,-475 828.142,4 -4,4"/>
<!-- _diagram_info -->
<g id="node1" class="node"><title>_diagram_info</title>
<text text-anchor="start" x="13.6955" y="-456.6" font-family="Times,serif" font-size="13.00">Models diagram</text>
<text text-anchor="start" x="13.6955" y="-442.6" font-family="Times,serif" font-size="13.00">Date: Jul 15 2015 &#45; 07:38</text>
<text text-anchor="start" x="13.6955" y="-428.6" font-family="Times,serif" font-size="13.00">Migration version: 20150706121112</text>
<text text-anchor="start" x="13.6955" y="-414.6" font-family="Times,serif" font-size="13.00">Generated by RailRoady 1.3.0</text>
<text text-anchor="start" x="13.6955" y="-400.6" font-family="Times,serif" font-size="13.00">http://railroady.prestonlee.com</text>
</g>
<!-- SiteSection -->
<g id="node2" class="node"><title>SiteSection</title>
<ellipse fill="none" stroke="black" cx="50.6955" cy="-338" rx="50.8918" ry="18"/>
<text text-anchor="middle" x="50.6955" y="-334.3" font-family="Times,serif" font-size="14.00">SiteSection</text>
</g>
<!-- Artist -->
<g id="node7" class="node"><title>Artist</title>
<ellipse fill="none" stroke="black" cx="131.696" cy="-251" rx="30.5947" ry="18"/>
<text text-anchor="middle" x="131.696" y="-247.3" font-family="Times,serif" font-size="14.00">Artist</text>
</g>
<!-- SiteSection&#45;&gt;Artist -->
<g id="edge1" class="edge"><title>SiteSection&#45;&gt;Artist</title>
<path fill="none" stroke="#7cd572" d="M72.1363,-314.5C83.9252,-302.129 98.5051,-286.829 110.289,-274.464"/>
<ellipse fill="none" stroke="#7cd572" cx="69.0726" cy="-317.715" rx="4.00002" ry="4.00002"/>
<polygon fill="#7cd572" stroke="#7cd572" points="110.316,-274.436 120.472,-270.301 113.765,-270.816 117.214,-267.196 117.214,-267.196 117.214,-267.196 113.765,-270.816 113.957,-264.092 110.316,-274.436 110.316,-274.436"/>
</g>
<!-- Attachment -->
<g id="node8" class="node"><title>Attachment</title>
<ellipse fill="none" stroke="black" cx="213.696" cy="-18" rx="51.9908" ry="18"/>
<text text-anchor="middle" x="213.696" y="-14.3" font-family="Times,serif" font-size="14.00">Attachment</text>
</g>
<!-- SiteSection&#45;&gt;Attachment -->
<g id="edge2" class="edge"><title>SiteSection&#45;&gt;Attachment</title>
<path fill="none" stroke="#2249c7" d="M30.8924,-314.245C18.8194,-298.025 5.6955,-275.084 5.6955,-252 5.6955,-252 5.6955,-252 5.6955,-90 5.6955,-57.7278 96.5099,-37.105 158.125,-26.8269"/>
<ellipse fill="none" stroke="#2249c7" cx="33.506" cy="-317.608" rx="4.00002" ry="4.00002"/>
<ellipse fill="#2249c7" stroke="#2249c7" cx="162.289" cy="-26.1484" rx="4.00001" ry="4.00001"/>
<text text-anchor="middle" x="22.6955" y="-174.3" font-family="Times,serif" font-size="14.00">image</text>
</g>
<!-- User -->
<g id="node3" class="node"><title>User</title>
<ellipse fill="none" stroke="black" cx="187.696" cy="-338" rx="27.0966" ry="18"/>
<text text-anchor="middle" x="187.696" y="-334.3" font-family="Times,serif" font-size="14.00">User</text>
</g>
<!-- Person -->
<g id="node6" class="node"><title>Person</title>
<ellipse fill="none" stroke="black" cx="217.696" cy="-251" rx="34.394" ry="18"/>
<text text-anchor="middle" x="217.696" y="-247.3" font-family="Times,serif" font-size="14.00">Person</text>
</g>
<!-- User&#45;&gt;Person -->
<g id="edge5" class="edge"><title>User&#45;&gt;Person</title>
<path fill="none" stroke="#84bb16" d="M184.974,-311.72C184.942,-303.61 185.821,-294.731 188.696,-287 190.5,-282.146 193.285,-277.481 196.43,-273.226"/>
<ellipse fill="none" stroke="#84bb16" cx="185.134" cy="-315.816" rx="4" ry="4"/>
<ellipse fill="#84bb16" stroke="#84bb16" cx="199.05" cy="-270.011" rx="4.00002" ry="4.00002"/>
<text text-anchor="middle" x="208.696" y="-290.8" font-family="Times,serif" font-size="14.00">contact</text>
</g>
<!-- User&#45;&gt;Artist -->
<g id="edge4" class="edge"><title>User&#45;&gt;Artist</title>
<path fill="none" stroke="#efb005" d="M172.672,-314.196C164.995,-302.543 155.646,-288.354 147.818,-276.472"/>
<ellipse fill="none" stroke="#efb005" cx="174.962" cy="-317.672" rx="4.00002" ry="4.00002"/>
<polygon fill="#efb005" stroke="#efb005" points="147.683,-276.267 145.939,-265.44 144.932,-272.091 142.181,-267.916 142.181,-267.916 142.181,-267.916 144.932,-272.091 138.424,-270.392 147.683,-276.267 147.683,-276.267"/>
</g>
<!-- Admin -->
<g id="node4" class="node"><title>Admin</title>
<polygon fill="none" stroke="black" stroke-dasharray="1,5" points="605.196,-450 550.196,-450 550.196,-414 605.196,-414 605.196,-450"/>
<text text-anchor="middle" x="577.696" y="-428.3" font-family="Times,serif" font-size="14.00">Admin</text>
</g>
<!-- Item -->
<g id="node5" class="node"><title>Item</title>
<ellipse fill="none" stroke="black" cx="292.696" cy="-91" rx="27.0966" ry="18"/>
<text text-anchor="middle" x="292.696" y="-87.3" font-family="Times,serif" font-size="14.00">Item</text>
</g>
<!-- Item&#45;&gt;Attachment -->
<g id="edge7" class="edge"><title>Item&#45;&gt;Attachment</title>
<path fill="none" stroke="#aae6b4" d="M270.903,-70.414C261.016,-61.5286 249.263,-50.9659 238.99,-41.7326"/>
<ellipse fill="none" stroke="#aae6b4" cx="274.113" cy="-73.2989" rx="4.00002" ry="4.00002"/>
<polygon fill="#aae6b4" stroke="#aae6b4" points="238.915,-41.6653 234.485,-31.6339 235.196,-38.323 231.477,-34.9808 231.477,-34.9808 231.477,-34.9808 235.196,-38.323 228.469,-38.3277 238.915,-41.6653 238.915,-41.6653"/>
</g>
<!-- Artist&#45;&gt;Attachment -->
<g id="edge11" class="edge"><title>Artist&#45;&gt;Attachment</title>
<path fill="none" stroke="#48cd16" d="M108.783,-229.863C84.0324,-205.544 50.4349,-163.37 68.6955,-127 90.5884,-83.3952 139.355,-52.9253 174.288,-35.7161"/>
<ellipse fill="none" stroke="#48cd16" cx="111.953" cy="-232.886" rx="4.00002" ry="4.00002"/>
<ellipse fill="#48cd16" stroke="#48cd16" cx="177.912" cy="-33.9763" rx="4.00002" ry="4.00002"/>
<text text-anchor="middle" x="118.696" y="-130.8" font-family="Times,serif" font-size="14.00">front_page_image</text>
</g>
<!-- Artist&#45;&gt;Attachment -->
<g id="edge12" class="edge"><title>Artist&#45;&gt;Attachment</title>
<path fill="none" stroke="#0fbb15" d="M140.424,-225.41C155.939,-181.706 188.187,-90.8581 204.221,-45.6905"/>
<ellipse fill="none" stroke="#0fbb15" cx="139.063" cy="-229.244" rx="4.00001" ry="4.00001"/>
<polygon fill="#0fbb15" stroke="#0fbb15" points="204.312,-45.4347 211.898,-37.5163 205.984,-40.7228 207.657,-36.0109 207.657,-36.0109 207.657,-36.0109 205.984,-40.7228 203.416,-34.5055 204.312,-45.4347 204.312,-45.4347"/>
<text text-anchor="middle" x="190.696" y="-130.8" font-family="Times,serif" font-size="14.00">assets</text>
</g>
<!-- Category -->
<g id="node12" class="node"><title>Category</title>
<ellipse fill="none" stroke="black" cx="247.696" cy="-178" rx="42.7926" ry="18"/>
<text text-anchor="middle" x="247.696" y="-174.3" font-family="Times,serif" font-size="14.00">Category</text>
</g>
<!-- Artist&#45;&gt;Category -->
<g id="edge10" class="edge"><title>Artist&#45;&gt;Category</title>
<path fill="none" stroke="#508ed0" d="M159.47,-233.739C169.363,-227.89 180.56,-221.205 190.696,-215 199.052,-209.884 208.039,-204.264 216.351,-199.016"/>
<ellipse fill="none" stroke="#508ed0" cx="155.977" cy="-235.799" rx="4.00002" ry="4.00002"/>
<polygon fill="#508ed0" stroke="#508ed0" points="216.594,-198.862 227.45,-197.312 220.818,-196.186 225.042,-193.511 225.042,-193.511 225.042,-193.511 220.818,-196.186 222.634,-189.709 216.594,-198.862 216.594,-198.862"/>
</g>
<!-- FrontPage -->
<g id="node9" class="node"><title>FrontPage</title>
<ellipse fill="none" stroke="black" cx="431.696" cy="-338" rx="46.5926" ry="18"/>
<text text-anchor="middle" x="431.696" y="-334.3" font-family="Times,serif" font-size="14.00">FrontPage</text>
</g>
<!-- Ability -->
<g id="node10" class="node"><title>Ability</title>
<polygon fill="none" stroke="black" points="817.196,-356 762.196,-356 762.196,-320 817.196,-320 817.196,-356"/>
<text text-anchor="middle" x="789.696" y="-334.3" font-family="Times,serif" font-size="14.00">Ability</text>
</g>
<!-- ItemCategory -->
<g id="node11" class="node"><title>ItemCategory</title>
<ellipse fill="none" stroke="black" cx="556.696" cy="-338" rx="59.5901" ry="18"/>
<text text-anchor="middle" x="556.696" y="-334.3" font-family="Times,serif" font-size="14.00">ItemCategory</text>
</g>
<!-- Category&#45;&gt;Item -->
<g id="edge18" class="edge"><title>Category&#45;&gt;Item</title>
<path fill="none" stroke="#17fc2c" d="M260.363,-153.073C266.295,-141.867 273.363,-128.517 279.375,-117.161"/>
<ellipse fill="none" stroke="#17fc2c" cx="258.458" cy="-156.672" rx="4.00002" ry="4.00002"/>
<polygon fill="#17fc2c" stroke="#17fc2c" points="279.45,-117.02 288.106,-110.287 281.789,-112.601 284.129,-108.182 284.129,-108.182 284.129,-108.182 281.789,-112.601 280.152,-106.076 279.45,-117.02 279.45,-117.02"/>
</g>
<!-- Category&#45;&gt;Attachment -->
<g id="edge19" class="edge"><title>Category&#45;&gt;Attachment</title>
<path fill="none" stroke="#bf07e2" d="M242.249,-151.692C235.907,-122.217 225.491,-73.8144 219.146,-44.3302"/>
<ellipse fill="none" stroke="#bf07e2" cx="243.151" cy="-155.88" rx="4.00001" ry="4.00001"/>
<ellipse fill="#bf07e2" stroke="#bf07e2" cx="218.236" cy="-40.0988" rx="4.00001" ry="4.00001"/>
</g>
<!-- Layout -->
<g id="node13" class="node"><title>Layout</title>
<ellipse fill="none" stroke="black" cx="708.696" cy="-338" rx="35.9954" ry="18"/>
<text text-anchor="middle" x="708.696" y="-334.3" font-family="Times,serif" font-size="14.00">Layout</text>
</g>
<!-- LayoutPartial -->
<g id="node14" class="node"><title>LayoutPartial</title>
<ellipse fill="none" stroke="black" cx="666.696" cy="-251" rx="58.4896" ry="18"/>
<text text-anchor="middle" x="666.696" y="-247.3" font-family="Times,serif" font-size="14.00">LayoutPartial</text>
</g>
<!-- Layout&#45;&gt;LayoutPartial -->
<g id="edge21" class="edge"><title>Layout&#45;&gt;LayoutPartial</title>
<path fill="none" stroke="#b14bea" d="M696.752,-312.829C691.411,-302.019 685.103,-289.253 679.648,-278.213"/>
<ellipse fill="none" stroke="#b14bea" cx="698.626" cy="-316.621" rx="4.00002" ry="4.00002"/>
<polygon fill="#b14bea" stroke="#b14bea" points="679.55,-278.015 679.154,-267.056 677.335,-273.532 675.12,-269.049 675.12,-269.049 675.12,-269.049 677.335,-273.532 671.085,-271.043 679.55,-278.015 679.55,-278.015"/>
</g>
<!-- ActiveRecord::Base -->
<g id="node15" class="node"><title>ActiveRecord::Base</title>
<ellipse fill="none" stroke="black" cx="318.696" cy="-432" rx="81.4863" ry="18"/>
<text text-anchor="middle" x="318.696" y="-428.3" font-family="Times,serif" font-size="14.00">ActiveRecord::Base</text>
</g>
<!-- ActiveRecord::Base&#45;&gt;SiteSection -->
<g id="edge3" class="edge"><title>ActiveRecord::Base&#45;&gt;SiteSection</title>
<path fill="none" stroke="black" d="M286.885,-415.345C269.961,-407.59 248.589,-398.693 228.696,-393 179.803,-379.007 163.776,-391.57 115.696,-375 100.938,-369.914 85.6101,-361.594 73.5474,-354.232"/>
</g>
<!-- ActiveRecord::Base&#45;&gt;User -->
<g id="edge6" class="edge"><title>ActiveRecord::Base&#45;&gt;User</title>
<path fill="none" stroke="black" d="M290.348,-414.982C272.227,-404.353 248.496,-389.699 228.696,-375 219.72,-368.338 210.308,-360.168 202.769,-353.297"/>
</g>
<!-- ActiveRecord::Base&#45;&gt;Item -->
<g id="edge8" class="edge"><title>ActiveRecord::Base&#45;&gt;Item</title>
<path fill="none" stroke="black" d="M318.696,-413.705C318.696,-395.214 318.696,-365.035 318.696,-339 318.696,-339 318.696,-339 318.696,-177 318.696,-152.309 308.539,-125.279 300.922,-108.478"/>
</g>
<!-- ActiveRecord::Base&#45;&gt;Person -->
<g id="edge9" class="edge"><title>ActiveRecord::Base&#45;&gt;Person</title>
<path fill="none" stroke="black" d="M300.003,-414.251C289.177,-403.792 275.912,-389.579 266.696,-375 255.088,-356.639 233.912,-298.347 223.623,-269.092"/>
</g>
<!-- ActiveRecord::Base&#45;&gt;Artist -->
<g id="edge13" class="edge"><title>ActiveRecord::Base&#45;&gt;Artist</title>
<path fill="none" stroke="black" d="M282.452,-415.729C234.664,-395.448 156.071,-361.53 151.696,-356 131.731,-330.766 129.716,-291.433 130.439,-269.068"/>
</g>
<!-- ActiveRecord::Base&#45;&gt;Attachment -->
<g id="edge14" class="edge"><title>ActiveRecord::Base&#45;&gt;Attachment</title>
<path fill="none" stroke="black" d="M330.511,-413.889C341.666,-396.038 356.696,-366.823 356.696,-339 356.696,-339 356.696,-339 356.696,-90 356.696,-47.1756 304.61,-30.1812 263.309,-23.4371"/>
</g>
<!-- ActiveRecord::Base&#45;&gt;FrontPage -->
<g id="edge15" class="edge"><title>ActiveRecord::Base&#45;&gt;FrontPage</title>
<path fill="none" stroke="black" d="M338.898,-414.552C359.72,-397.6 391.948,-371.361 412.423,-354.691"/>
</g>
<!-- ActiveRecord::Base&#45;&gt;ItemCategory -->
<g id="edge17" class="edge"><title>ActiveRecord::Base&#45;&gt;ItemCategory</title>
<path fill="none" stroke="black" d="M357.199,-416.116C402.587,-398.571 477.388,-369.657 521.355,-352.661"/>
</g>
<!-- ActiveRecord::Base&#45;&gt;Category -->
<g id="edge20" class="edge"><title>ActiveRecord::Base&#45;&gt;Category</title>
<path fill="none" stroke="black" d="M313.815,-413.679C300.813,-367.531 265.449,-242.013 252.516,-196.109"/>
</g>
<!-- ActiveRecord::Base&#45;&gt;Layout -->
<g id="edge22" class="edge"><title>ActiveRecord::Base&#45;&gt;Layout</title>
<path fill="none" stroke="black" d="M380.369,-420.134C424.89,-412.366 486.463,-401.777 540.696,-393 593.065,-384.524 609.582,-395.056 658.696,-375 670.777,-370.066 682.699,-361.659 691.869,-354.21"/>
</g>
<!-- ActiveRecord::Base&#45;&gt;LayoutPartial -->
<g id="edge23" class="edge"><title>ActiveRecord::Base&#45;&gt;LayoutPartial</title>
<path fill="none" stroke="black" d="M386.065,-421.886C465.245,-409.944 590.349,-386.842 625.696,-356 651.58,-333.415 661.271,-292.344 664.787,-269.147"/>
</g>
<!-- Object -->
<g id="node16" class="node"><title>Object</title>
<ellipse fill="none" stroke="black" cx="789.696" cy="-432" rx="34.394" ry="18"/>
<text text-anchor="middle" x="789.696" y="-428.3" font-family="Times,serif" font-size="14.00">Object</text>
</g>
<!-- Object&#45;&gt;Ability -->
<g id="edge16" class="edge"><title>Object&#45;&gt;Ability</title>
<path fill="none" stroke="black" d="M789.696,-413.696C789.696,-397.247 789.696,-372.649 789.696,-356.227"/>
</g>
</g>
</svg>
