<?xml version="1.0" encoding="UTF-8" standalone="no"?>
<!DOCTYPE svg PUBLIC "-//W3C//DTD SVG 1.1//EN"
 "http://www.w3.org/Graphics/SVG/1.1/DTD/svg11.dtd">
<!-- Generated by graphviz version 2.38.0 (20140413.2041)
 -->
<!-- Title: models_diagram Pages: 1 -->
<svg width="1070pt" height="1479pt"
 viewBox="0.00 0.00 1069.95 1479.00" xmlns="http://www.w3.org/2000/svg" xmlns:xlink="http://www.w3.org/1999/xlink">
<g id="graph0" class="graph" transform="scale(1 1) rotate(0) translate(4 1475)">
<title>models_diagram</title>
<polygon fill="white" stroke="none" points="-4,4 -4,-1475 1065.95,-1475 1065.95,4 -4,4"/>
<!-- _diagram_info -->
<g id="node1" class="node"><title>_diagram_info</title>
<text text-anchor="start" x="118.5" y="-1456.6" font-family="Times,serif" font-size="13.00">Models diagram</text>
<text text-anchor="start" x="118.5" y="-1442.6" font-family="Times,serif" font-size="13.00">Date: Jul 15 2015 &#45; 07:38</text>
<text text-anchor="start" x="118.5" y="-1428.6" font-family="Times,serif" font-size="13.00">Migration version: 20150706121112</text>
<text text-anchor="start" x="118.5" y="-1414.6" font-family="Times,serif" font-size="13.00">Generated by RailRoady 1.3.0</text>
<text text-anchor="start" x="118.5" y="-1400.6" font-family="Times,serif" font-size="13.00">http://railroady.prestonlee.com</text>
</g>
<!-- SiteSection -->
<g id="node2" class="node"><title>SiteSection</title>
<path fill="none" stroke="black" d="M12,-1122C12,-1122 119,-1122 119,-1122 125,-1122 131,-1128 131,-1134 131,-1134 131,-1276 131,-1276 131,-1282 125,-1288 119,-1288 119,-1288 12,-1288 12,-1288 6,-1288 0,-1282 0,-1276 0,-1276 0,-1134 0,-1134 0,-1128 6,-1122 12,-1122"/>
<text text-anchor="middle" x="65.5" y="-1272.8" font-family="Times,serif" font-size="14.00">SiteSection</text>
<polyline fill="none" stroke="black" points="0,-1265 131,-1265 "/>
<text text-anchor="start" x="8" y="-1249.8" font-family="Times,serif" font-size="14.00">id :integer</text>
<text text-anchor="start" x="8" y="-1234.8" font-family="Times,serif" font-size="14.00">name :string</text>
<text text-anchor="start" x="8" y="-1219.8" font-family="Times,serif" font-size="14.00">subheading :string</text>
<text text-anchor="start" x="8" y="-1204.8" font-family="Times,serif" font-size="14.00">description :text</text>
<text text-anchor="start" x="8" y="-1189.8" font-family="Times,serif" font-size="14.00">position :integer</text>
<text text-anchor="start" x="8" y="-1174.8" font-family="Times,serif" font-size="14.00">visible :boolean</text>
<text text-anchor="start" x="8" y="-1159.8" font-family="Times,serif" font-size="14.00">layout_id :integer</text>
<text text-anchor="start" x="8" y="-1144.8" font-family="Times,serif" font-size="14.00">created_at :datetime</text>
<text text-anchor="start" x="8" y="-1129.8" font-family="Times,serif" font-size="14.00">updated_at :datetime</text>
</g>
<!-- Artist -->
<g id="node7" class="node"><title>Artist</title>
<path fill="none" stroke="black" d="M62,-791.5C62,-791.5 181,-791.5 181,-791.5 187,-791.5 193,-797.5 193,-803.5 193,-803.5 193,-990.5 193,-990.5 193,-996.5 187,-1002.5 181,-1002.5 181,-1002.5 62,-1002.5 62,-1002.5 56,-1002.5 50,-996.5 50,-990.5 50,-990.5 50,-803.5 50,-803.5 50,-797.5 56,-791.5 62,-791.5"/>
<text text-anchor="middle" x="121.5" y="-987.3" font-family="Times,serif" font-size="14.00">Artist</text>
<polyline fill="none" stroke="black" points="50,-979.5 193,-979.5 "/>
<text text-anchor="start" x="58" y="-964.3" font-family="Times,serif" font-size="14.00">id :integer</text>
<text text-anchor="start" x="58" y="-949.3" font-family="Times,serif" font-size="14.00">artistable_id :integer</text>
<text text-anchor="start" x="58" y="-934.3" font-family="Times,serif" font-size="14.00">artistable_type :string</text>
<text text-anchor="start" x="58" y="-919.3" font-family="Times,serif" font-size="14.00">name :string</text>
<text text-anchor="start" x="58" y="-904.3" font-family="Times,serif" font-size="14.00">subtitle :string</text>
<text text-anchor="start" x="58" y="-889.3" font-family="Times,serif" font-size="14.00">summary :text</text>
<text text-anchor="start" x="58" y="-874.3" font-family="Times,serif" font-size="14.00">site_section_id :integer</text>
<text text-anchor="start" x="58" y="-859.3" font-family="Times,serif" font-size="14.00">aasm_state :string</text>
<text text-anchor="start" x="58" y="-844.3" font-family="Times,serif" font-size="14.00">layout_id :integer</text>
<text text-anchor="start" x="58" y="-829.3" font-family="Times,serif" font-size="14.00">position :integer</text>
<text text-anchor="start" x="58" y="-814.3" font-family="Times,serif" font-size="14.00">created_at :datetime</text>
<text text-anchor="start" x="58" y="-799.3" font-family="Times,serif" font-size="14.00">updated_at :datetime</text>
</g>
<!-- SiteSection&#45;&gt;Artist -->
<g id="edge1" class="edge"><title>SiteSection&#45;&gt;Artist</title>
<path fill="none" stroke="#e9b87e" d="M82.0204,-1113.73C87.7964,-1082.17 94.3605,-1046.3 100.455,-1012.99"/>
<ellipse fill="none" stroke="#e9b87e" cx="81.2271" cy="-1118.06" rx="4.00001" ry="4.00001"/>
<polygon fill="#e9b87e" stroke="#e9b87e" points="100.53,-1012.59 106.757,-1003.56 101.43,-1007.67 102.33,-1002.75 102.33,-1002.75 102.33,-1002.75 101.43,-1007.67 97.9037,-1001.94 100.53,-1012.59 100.53,-1012.59"/>
</g>
<!-- Attachment -->
<g id="node8" class="node"><title>Attachment</title>
<path fill="none" stroke="black" d="M139.5,-0.5C139.5,-0.5 279.5,-0.5 279.5,-0.5 285.5,-0.5 291.5,-6.5 291.5,-12.5 291.5,-12.5 291.5,-199.5 291.5,-199.5 291.5,-205.5 285.5,-211.5 279.5,-211.5 279.5,-211.5 139.5,-211.5 139.5,-211.5 133.5,-211.5 127.5,-205.5 127.5,-199.5 127.5,-199.5 127.5,-12.5 127.5,-12.5 127.5,-6.5 133.5,-0.5 139.5,-0.5"/>
<text text-anchor="middle" x="209.5" y="-196.3" font-family="Times,serif" font-size="14.00">Attachment</text>
<polyline fill="none" stroke="black" points="127.5,-188.5 291.5,-188.5 "/>
<text text-anchor="start" x="135.5" y="-173.3" font-family="Times,serif" font-size="14.00">id :integer</text>
<text text-anchor="start" x="135.5" y="-158.3" font-family="Times,serif" font-size="14.00">asset_file_name :string</text>
<text text-anchor="start" x="135.5" y="-143.3" font-family="Times,serif" font-size="14.00">asset_content_type :string</text>
<text text-anchor="start" x="135.5" y="-128.3" font-family="Times,serif" font-size="14.00">asset_file_size :integer</text>
<text text-anchor="start" x="135.5" y="-113.3" font-family="Times,serif" font-size="14.00">asset_updated_at :datetime</text>
<text text-anchor="start" x="135.5" y="-98.3" font-family="Times,serif" font-size="14.00">name :string</text>
<text text-anchor="start" x="135.5" y="-83.3" font-family="Times,serif" font-size="14.00">attachable_id :integer</text>
<text text-anchor="start" x="135.5" y="-68.3" font-family="Times,serif" font-size="14.00">attachable_type :string</text>
<text text-anchor="start" x="135.5" y="-53.3" font-family="Times,serif" font-size="14.00">position :integer</text>
<text text-anchor="start" x="135.5" y="-38.3" font-family="Times,serif" font-size="14.00">usage :string</text>
<text text-anchor="start" x="135.5" y="-23.3" font-family="Times,serif" font-size="14.00">created_at :datetime</text>
<text text-anchor="start" x="135.5" y="-8.3" font-family="Times,serif" font-size="14.00">updated_at :datetime</text>
</g>
<!-- SiteSection&#45;&gt;Attachment -->
<g id="edge2" class="edge"><title>SiteSection&#45;&gt;Attachment</title>
<path fill="none" stroke="#6493cc" d="M36.4582,-1113.85C19.5355,-1053.44 1.5,-971.758 1.5,-898 1.5,-898 1.5,-898 1.5,-384 1.5,-299.284 64.4801,-223.928 121.129,-173.281"/>
<ellipse fill="none" stroke="#6493cc" cx="37.6374" cy="-1118" rx="4.00001" ry="4.00001"/>
<ellipse fill="#6493cc" stroke="#6493cc" cx="124.293" cy="-170.49" rx="4.00002" ry="4.00002"/>
<text text-anchor="middle" x="18.5" y="-659.3" font-family="Times,serif" font-size="14.00">image</text>
</g>
<!-- User -->
<g id="node3" class="node"><title>User</title>
<path fill="none" stroke="black" d="M200,-1054.5C200,-1054.5 307,-1054.5 307,-1054.5 313,-1054.5 319,-1060.5 319,-1066.5 319,-1066.5 319,-1343.5 319,-1343.5 319,-1349.5 313,-1355.5 307,-1355.5 307,-1355.5 200,-1355.5 200,-1355.5 194,-1355.5 188,-1349.5 188,-1343.5 188,-1343.5 188,-1066.5 188,-1066.5 188,-1060.5 194,-1054.5 200,-1054.5"/>
<text text-anchor="middle" x="253.5" y="-1340.3" font-family="Times,serif" font-size="14.00">User</text>
<polyline fill="none" stroke="black" points="188,-1332.5 319,-1332.5 "/>
<text text-anchor="start" x="196" y="-1317.3" font-family="Times,serif" font-size="14.00">id :integer</text>
<text text-anchor="start" x="196" y="-1302.3" font-family="Times,serif" font-size="14.00">provider :string</text>
<text text-anchor="start" x="196" y="-1287.3" font-family="Times,serif" font-size="14.00">uid :string</text>
<text text-anchor="start" x="196" y="-1272.3" font-family="Times,serif" font-size="14.00">email :string</text>
<text text-anchor="start" x="196" y="-1257.3" font-family="Times,serif" font-size="14.00">name :string</text>
<text text-anchor="start" x="196" y="-1242.3" font-family="Times,serif" font-size="14.00">first_name :string</text>
<text text-anchor="start" x="196" y="-1227.3" font-family="Times,serif" font-size="14.00">last_name :string</text>
<text text-anchor="start" x="196" y="-1212.3" font-family="Times,serif" font-size="14.00">gender :string</text>
<text text-anchor="start" x="196" y="-1197.3" font-family="Times,serif" font-size="14.00">image_url :string</text>
<text text-anchor="start" x="196" y="-1182.3" font-family="Times,serif" font-size="14.00">oauth_token :string</text>
<text text-anchor="start" x="196" y="-1167.3" font-family="Times,serif" font-size="14.00">aasm_state :string</text>
<text text-anchor="start" x="196" y="-1152.3" font-family="Times,serif" font-size="14.00">country_code :string</text>
<text text-anchor="start" x="196" y="-1137.3" font-family="Times,serif" font-size="14.00">postal_code :string</text>
<text text-anchor="start" x="196" y="-1122.3" font-family="Times,serif" font-size="14.00">lat :decimal</text>
<text text-anchor="start" x="196" y="-1107.3" font-family="Times,serif" font-size="14.00">lng :decimal</text>
<text text-anchor="start" x="196" y="-1092.3" font-family="Times,serif" font-size="14.00">role :string</text>
<text text-anchor="start" x="196" y="-1077.3" font-family="Times,serif" font-size="14.00">created_at :datetime</text>
<text text-anchor="start" x="196" y="-1062.3" font-family="Times,serif" font-size="14.00">updated_at :datetime</text>
</g>
<!-- Person -->
<g id="node6" class="node"><title>Person</title>
<path fill="none" stroke="black" d="M223.5,-791.5C223.5,-791.5 345.5,-791.5 345.5,-791.5 351.5,-791.5 357.5,-797.5 357.5,-803.5 357.5,-803.5 357.5,-990.5 357.5,-990.5 357.5,-996.5 351.5,-1002.5 345.5,-1002.5 345.5,-1002.5 223.5,-1002.5 223.5,-1002.5 217.5,-1002.5 211.5,-996.5 211.5,-990.5 211.5,-990.5 211.5,-803.5 211.5,-803.5 211.5,-797.5 217.5,-791.5 223.5,-791.5"/>
<text text-anchor="middle" x="284.5" y="-987.3" font-family="Times,serif" font-size="14.00">Person</text>
<polyline fill="none" stroke="black" points="211.5,-979.5 357.5,-979.5 "/>
<text text-anchor="start" x="219.5" y="-964.3" font-family="Times,serif" font-size="14.00">id :integer</text>
<text text-anchor="start" x="219.5" y="-949.3" font-family="Times,serif" font-size="14.00">name :string</text>
<text text-anchor="start" x="219.5" y="-934.3" font-family="Times,serif" font-size="14.00">email :string</text>
<text text-anchor="start" x="219.5" y="-919.3" font-family="Times,serif" font-size="14.00">phone :string</text>
<text text-anchor="start" x="219.5" y="-904.3" font-family="Times,serif" font-size="14.00">lat :float</text>
<text text-anchor="start" x="219.5" y="-889.3" font-family="Times,serif" font-size="14.00">lng :float</text>
<text text-anchor="start" x="219.5" y="-874.3" font-family="Times,serif" font-size="14.00">address :string</text>
<text text-anchor="start" x="219.5" y="-859.3" font-family="Times,serif" font-size="14.00">skype :string</text>
<text text-anchor="start" x="219.5" y="-844.3" font-family="Times,serif" font-size="14.00">contactable_id :integer</text>
<text text-anchor="start" x="219.5" y="-829.3" font-family="Times,serif" font-size="14.00">contactable_type :string</text>
<text text-anchor="start" x="219.5" y="-814.3" font-family="Times,serif" font-size="14.00">created_at :datetime</text>
<text text-anchor="start" x="219.5" y="-799.3" font-family="Times,serif" font-size="14.00">updated_at :datetime</text>
</g>
<!-- User&#45;&gt;Person -->
<g id="edge5" class="edge"><title>User&#45;&gt;Person</title>
<path fill="none" stroke="#b6da77" d="M269.509,-1045.97C270.707,-1034.15 271.9,-1022.37 273.061,-1010.92"/>
<ellipse fill="none" stroke="#b6da77" cx="269.085" cy="-1050.16" rx="4" ry="4"/>
<ellipse fill="#b6da77" stroke="#b6da77" cx="273.497" cy="-1006.61" rx="4" ry="4"/>
<text text-anchor="middle" x="292.5" y="-1024.8" font-family="Times,serif" font-size="14.00">contact</text>
</g>
<!-- User&#45;&gt;Artist -->
<g id="edge4" class="edge"><title>User&#45;&gt;Artist</title>
<path fill="none" stroke="#f3c832" d="M185.684,-1046.79C180.641,-1035.1 175.613,-1023.44 170.716,-1012.09"/>
<ellipse fill="none" stroke="#f3c832" cx="187.269" cy="-1050.46" rx="4.00002" ry="4.00002"/>
<polygon fill="#f3c832" stroke="#f3c832" points="170.598,-1011.82 170.769,-1000.85 168.617,-1007.23 166.637,-1002.63 166.637,-1002.63 166.637,-1002.63 168.617,-1007.23 162.505,-1004.42 170.598,-1011.82 170.598,-1011.82"/>
</g>
<!-- Admin -->
<g id="node4" class="node"><title>Admin</title>
<polygon fill="none" stroke="black" stroke-dasharray="1,5" points="777,-1450 722,-1450 722,-1414 777,-1414 777,-1450"/>
<text text-anchor="middle" x="749.5" y="-1428.3" font-family="Times,serif" font-size="14.00">Admin</text>
</g>
<!-- Item -->
<g id="node5" class="node"><title>Item</title>
<path fill="none" stroke="black" d="M274,-249.5C274,-249.5 387,-249.5 387,-249.5 393,-249.5 399,-255.5 399,-261.5 399,-261.5 399,-508.5 399,-508.5 399,-514.5 393,-520.5 387,-520.5 387,-520.5 274,-520.5 274,-520.5 268,-520.5 262,-514.5 262,-508.5 262,-508.5 262,-261.5 262,-261.5 262,-255.5 268,-249.5 274,-249.5"/>
<text text-anchor="middle" x="330.5" y="-505.3" font-family="Times,serif" font-size="14.00">Item</text>
<polyline fill="none" stroke="black" points="262,-497.5 399,-497.5 "/>
<text text-anchor="start" x="270" y="-482.3" font-family="Times,serif" font-size="14.00">id :integer</text>
<text text-anchor="start" x="270" y="-467.3" font-family="Times,serif" font-size="14.00">title :string</text>
<text text-anchor="start" x="270" y="-452.3" font-family="Times,serif" font-size="14.00">date_of_creation :date</text>
<text text-anchor="start" x="270" y="-437.3" font-family="Times,serif" font-size="14.00">summary :text</text>
<text text-anchor="start" x="270" y="-422.3" font-family="Times,serif" font-size="14.00">ancestry :string</text>
<text text-anchor="start" x="270" y="-407.3" font-family="Times,serif" font-size="14.00">position :integer</text>
<text text-anchor="start" x="270" y="-392.3" font-family="Times,serif" font-size="14.00">price :float</text>
<text text-anchor="start" x="270" y="-377.3" font-family="Times,serif" font-size="14.00">youtube_url :string</text>
<text text-anchor="start" x="270" y="-362.3" font-family="Times,serif" font-size="14.00">lat :float</text>
<text text-anchor="start" x="270" y="-347.3" font-family="Times,serif" font-size="14.00">lng :float</text>
<text text-anchor="start" x="270" y="-332.3" font-family="Times,serif" font-size="14.00">location :string</text>
<text text-anchor="start" x="270" y="-317.3" font-family="Times,serif" font-size="14.00">itemable_id :integer</text>
<text text-anchor="start" x="270" y="-302.3" font-family="Times,serif" font-size="14.00">itemable_type :string</text>
<text text-anchor="start" x="270" y="-287.3" font-family="Times,serif" font-size="14.00">aasm_state :string</text>
<text text-anchor="start" x="270" y="-272.3" font-family="Times,serif" font-size="14.00">created_at :datetime</text>
<text text-anchor="start" x="270" y="-257.3" font-family="Times,serif" font-size="14.00">updated_at :datetime</text>
</g>
<!-- Item&#45;&gt;Attachment -->
<g id="edge7" class="edge"><title>Item&#45;&gt;Attachment</title>
<path fill="none" stroke="#0643c8" d="M268.39,-241.814C265.364,-234.887 262.344,-227.973 259.359,-221.14"/>
<ellipse fill="none" stroke="#0643c8" cx="269.994" cy="-245.486" rx="4.00002" ry="4.00002"/>
<polygon fill="#0643c8" stroke="#0643c8" points="259.317,-221.044 259.438,-210.079 257.315,-216.462 255.314,-211.88 255.314,-211.88 255.314,-211.88 257.315,-216.462 251.19,-213.681 259.317,-221.044 259.317,-221.044"/>
</g>
<!-- Artist&#45;&gt;Attachment -->
<g id="edge11" class="edge"><title>Artist&#45;&gt;Attachment</title>
<path fill="none" stroke="#52a804" d="M84.9,-783.281C66.6961,-713.008 51.1525,-620.713 64.5,-539 82.7914,-427.021 126.099,-304.921 160.651,-219.187"/>
<ellipse fill="none" stroke="#52a804" cx="85.9956" cy="-787.438" rx="4.00001" ry="4.00001"/>
<ellipse fill="#52a804" stroke="#52a804" cx="162.253" cy="-215.232" rx="4.00001" ry="4.00001"/>
<text text-anchor="middle" x="114.5" y="-542.8" font-family="Times,serif" font-size="14.00">front_page_image</text>
</g>
<!-- Artist&#45;&gt;Attachment -->
<g id="edge12" class="edge"><title>Artist&#45;&gt;Attachment</title>
<path fill="none" stroke="#d2cd6f" d="M136.385,-783.275C145.007,-716.636 155.834,-630.568 164.5,-554 177.267,-441.201 190.062,-312.179 198.727,-221.84"/>
<ellipse fill="none" stroke="#d2cd6f" cx="135.859" cy="-787.337" rx="4.00001" ry="4.00001"/>
<polygon fill="#d2cd6f" stroke="#d2cd6f" points="198.731,-221.801 204.164,-212.275 199.207,-216.823 199.684,-211.846 199.684,-211.846 199.684,-211.846 199.207,-216.823 195.205,-211.417 198.731,-221.801 198.731,-221.801"/>
<text text-anchor="middle" x="182.5" y="-542.8" font-family="Times,serif" font-size="14.00">assets</text>
</g>
<!-- Category -->
<g id="node12" class="node"><title>Category</title>
<path fill="none" stroke="black" d="M205.5,-572.5C205.5,-572.5 383.5,-572.5 383.5,-572.5 389.5,-572.5 395.5,-578.5 395.5,-584.5 395.5,-584.5 395.5,-741.5 395.5,-741.5 395.5,-747.5 389.5,-753.5 383.5,-753.5 383.5,-753.5 205.5,-753.5 205.5,-753.5 199.5,-753.5 193.5,-747.5 193.5,-741.5 193.5,-741.5 193.5,-584.5 193.5,-584.5 193.5,-578.5 199.5,-572.5 205.5,-572.5"/>
<text text-anchor="middle" x="294.5" y="-738.3" font-family="Times,serif" font-size="14.00">Category</text>
<polyline fill="none" stroke="black" points="193.5,-730.5 395.5,-730.5 "/>
<text text-anchor="start" x="201.5" y="-715.3" font-family="Times,serif" font-size="14.00">id :integer</text>
<text text-anchor="start" x="201.5" y="-700.3" font-family="Times,serif" font-size="14.00">position :integer</text>
<text text-anchor="start" x="201.5" y="-685.3" font-family="Times,serif" font-size="14.00">name :string</text>
<text text-anchor="start" x="201.5" y="-670.3" font-family="Times,serif" font-size="14.00">description :text</text>
<text text-anchor="start" x="201.5" y="-655.3" font-family="Times,serif" font-size="14.00">ancestry :string</text>
<text text-anchor="start" x="201.5" y="-640.3" font-family="Times,serif" font-size="14.00">categorical_id :integer</text>
<text text-anchor="start" x="201.5" y="-625.3" font-family="Times,serif" font-size="14.00">categorical_type :string</text>
<text text-anchor="start" x="201.5" y="-610.3" font-family="Times,serif" font-size="14.00">use_first_image_as_icon :boolean</text>
<text text-anchor="start" x="201.5" y="-595.3" font-family="Times,serif" font-size="14.00">created_at :datetime</text>
<text text-anchor="start" x="201.5" y="-580.3" font-family="Times,serif" font-size="14.00">updated_at :datetime</text>
</g>
<!-- Artist&#45;&gt;Category -->
<g id="edge10" class="edge"><title>Artist&#45;&gt;Category</title>
<path fill="none" stroke="#70c5ec" d="M197.957,-793.468C205.767,-782.994 213.688,-772.372 221.46,-761.949"/>
<ellipse fill="none" stroke="#70c5ec" cx="195.506" cy="-796.755" rx="4.00002" ry="4.00002"/>
<polygon fill="#70c5ec" stroke="#70c5ec" points="221.679,-761.656 231.264,-756.33 224.668,-757.648 227.657,-753.64 227.657,-753.64 227.657,-753.64 224.668,-757.648 224.049,-750.95 221.679,-761.656 221.679,-761.656"/>
</g>
<!-- FrontPage -->
<g id="node9" class="node"><title>FrontPage</title>
<path fill="none" stroke="black" d="M502,-1144.5C502,-1144.5 609,-1144.5 609,-1144.5 615,-1144.5 621,-1150.5 621,-1156.5 621,-1156.5 621,-1253.5 621,-1253.5 621,-1259.5 615,-1265.5 609,-1265.5 609,-1265.5 502,-1265.5 502,-1265.5 496,-1265.5 490,-1259.5 490,-1253.5 490,-1253.5 490,-1156.5 490,-1156.5 490,-1150.5 496,-1144.5 502,-1144.5"/>
<text text-anchor="middle" x="555.5" y="-1250.3" font-family="Times,serif" font-size="14.00">FrontPage</text>
<polyline fill="none" stroke="black" points="490,-1242.5 621,-1242.5 "/>
<text text-anchor="start" x="498" y="-1227.3" font-family="Times,serif" font-size="14.00">id :integer</text>
<text text-anchor="start" x="498" y="-1212.3" font-family="Times,serif" font-size="14.00">artist_id :integer</text>
<text text-anchor="start" x="498" y="-1197.3" font-family="Times,serif" font-size="14.00">layout_id :integer</text>
<text text-anchor="start" x="498" y="-1182.3" font-family="Times,serif" font-size="14.00">body :text</text>
<text text-anchor="start" x="498" y="-1167.3" font-family="Times,serif" font-size="14.00">created_at :datetime</text>
<text text-anchor="start" x="498" y="-1152.3" font-family="Times,serif" font-size="14.00">updated_at :datetime</text>
</g>
<!-- Ability -->
<g id="node10" class="node"><title>Ability</title>
<polygon fill="none" stroke="black" points="1000,-1182 1000,-1228 1055,-1228 1055,-1182 1000,-1182"/>
<text text-anchor="middle" x="1027.5" y="-1212.8" font-family="Times,serif" font-size="14.00">Ability</text>
<polyline fill="none" stroke="black" points="1000,-1205 1055,-1205 "/>
<text text-anchor="middle" x="1027.5" y="-1189.8" font-family="Times,serif" font-size="14.00"> </text>
</g>
<!-- ItemCategory -->
<g id="node11" class="node"><title>ItemCategory</title>
<path fill="none" stroke="black" d="M651,-1152C651,-1152 758,-1152 758,-1152 764,-1152 770,-1158 770,-1164 770,-1164 770,-1246 770,-1246 770,-1252 764,-1258 758,-1258 758,-1258 651,-1258 651,-1258 645,-1258 639,-1252 639,-1246 639,-1246 639,-1164 639,-1164 639,-1158 645,-1152 651,-1152"/>
<text text-anchor="middle" x="704.5" y="-1242.8" font-family="Times,serif" font-size="14.00">ItemCategory</text>
<polyline fill="none" stroke="black" points="639,-1235 770,-1235 "/>
<text text-anchor="start" x="647" y="-1219.8" font-family="Times,serif" font-size="14.00">id :integer</text>
<text text-anchor="start" x="647" y="-1204.8" font-family="Times,serif" font-size="14.00">item_id :integer</text>
<text text-anchor="start" x="647" y="-1189.8" font-family="Times,serif" font-size="14.00">category_id :integer</text>
<text text-anchor="start" x="647" y="-1174.8" font-family="Times,serif" font-size="14.00">created_at :datetime</text>
<text text-anchor="start" x="647" y="-1159.8" font-family="Times,serif" font-size="14.00">updated_at :datetime</text>
</g>
<!-- Category&#45;&gt;Item -->
<g id="edge18" class="edge"><title>Category&#45;&gt;Item</title>
<path fill="none" stroke="#94d63a" d="M307.265,-564.136C308.692,-553.192 310.168,-541.88 311.651,-530.508"/>
<ellipse fill="none" stroke="#94d63a" cx="306.706" cy="-568.424" rx="4.00001" ry="4.00001"/>
<polygon fill="#94d63a" stroke="#94d63a" points="311.662,-530.424 317.418,-521.09 312.309,-525.466 312.956,-520.508 312.956,-520.508 312.956,-520.508 312.309,-525.466 308.493,-519.926 311.662,-530.424 311.662,-530.424"/>
</g>
<!-- Category&#45;&gt;Attachment -->
<g id="edge19" class="edge"><title>Category&#45;&gt;Attachment</title>
<path fill="none" stroke="#912f89" d="M262.874,-564.383C258.941,-549.944 255.319,-535.161 252.5,-521 232.409,-420.075 221.364,-303.325 215.518,-219.587"/>
<ellipse fill="none" stroke="#912f89" cx="264.019" cy="-568.509" rx="4.00001" ry="4.00001"/>
<ellipse fill="#912f89" stroke="#912f89" cx="215.243" cy="-215.579" rx="4" ry="4"/>
</g>
<!-- Layout -->
<g id="node13" class="node"><title>Layout</title>
<path fill="none" stroke="black" d="M839,-1129.5C839,-1129.5 970,-1129.5 970,-1129.5 976,-1129.5 982,-1135.5 982,-1141.5 982,-1141.5 982,-1268.5 982,-1268.5 982,-1274.5 976,-1280.5 970,-1280.5 970,-1280.5 839,-1280.5 839,-1280.5 833,-1280.5 827,-1274.5 827,-1268.5 827,-1268.5 827,-1141.5 827,-1141.5 827,-1135.5 833,-1129.5 839,-1129.5"/>
<text text-anchor="middle" x="904.5" y="-1265.3" font-family="Times,serif" font-size="14.00">Layout</text>
<polyline fill="none" stroke="black" points="827,-1257.5 982,-1257.5 "/>
<text text-anchor="start" x="835" y="-1242.3" font-family="Times,serif" font-size="14.00">id :integer</text>
<text text-anchor="start" x="835" y="-1227.3" font-family="Times,serif" font-size="14.00">name :string</text>
<text text-anchor="start" x="835" y="-1212.3" font-family="Times,serif" font-size="14.00">description :text</text>
<text text-anchor="start" x="835" y="-1197.3" font-family="Times,serif" font-size="14.00">sample_url :string</text>
<text text-anchor="start" x="835" y="-1182.3" font-family="Times,serif" font-size="14.00">rails_layout_name :string</text>
<text text-anchor="start" x="835" y="-1167.3" font-family="Times,serif" font-size="14.00">aasm_string :string</text>
<text text-anchor="start" x="835" y="-1152.3" font-family="Times,serif" font-size="14.00">created_at :datetime</text>
<text text-anchor="start" x="835" y="-1137.3" font-family="Times,serif" font-size="14.00">updated_at :datetime</text>
</g>
<!-- LayoutPartial -->
<g id="node14" class="node"><title>LayoutPartial</title>
<path fill="none" stroke="black" d="M777,-829C777,-829 884,-829 884,-829 890,-829 896,-835 896,-841 896,-841 896,-953 896,-953 896,-959 890,-965 884,-965 884,-965 777,-965 777,-965 771,-965 765,-959 765,-953 765,-953 765,-841 765,-841 765,-835 771,-829 777,-829"/>
<text text-anchor="middle" x="830.5" y="-949.8" font-family="Times,serif" font-size="14.00">LayoutPartial</text>
<polyline fill="none" stroke="black" points="765,-942 896,-942 "/>
<text text-anchor="start" x="773" y="-926.8" font-family="Times,serif" font-size="14.00">id :integer</text>
<text text-anchor="start" x="773" y="-911.8" font-family="Times,serif" font-size="14.00">name :string</text>
<text text-anchor="start" x="773" y="-896.8" font-family="Times,serif" font-size="14.00">rails_path :string</text>
<text text-anchor="start" x="773" y="-881.8" font-family="Times,serif" font-size="14.00">layout_id :integer</text>
<text text-anchor="start" x="773" y="-866.8" font-family="Times,serif" font-size="14.00">partial_type :string</text>
<text text-anchor="start" x="773" y="-851.8" font-family="Times,serif" font-size="14.00">created_at :datetime</text>
<text text-anchor="start" x="773" y="-836.8" font-family="Times,serif" font-size="14.00">updated_at :datetime</text>
</g>
<!-- Layout&#45;&gt;LayoutPartial -->
<g id="edge21" class="edge"><title>Layout&#45;&gt;LayoutPartial</title>
<path fill="none" stroke="#d66f41" d="M884.449,-1121.09C873.441,-1075.57 859.88,-1019.49 849.108,-974.948"/>
<ellipse fill="none" stroke="#d66f41" cx="885.457" cy="-1125.26" rx="4.00001" ry="4.00001"/>
<polygon fill="#d66f41" stroke="#d66f41" points="849.065,-974.769 851.088,-963.991 847.89,-969.909 846.714,-965.049 846.714,-965.049 846.714,-965.049 847.89,-969.909 842.34,-966.107 849.065,-974.769 849.065,-974.769"/>
</g>
<!-- ActiveRecord::Base -->
<g id="node15" class="node"><title>ActiveRecord::Base</title>
<ellipse fill="none" stroke="black" cx="423.5" cy="-1432" rx="81.4863" ry="18"/>
<text text-anchor="middle" x="423.5" y="-1428.3" font-family="Times,serif" font-size="14.00">ActiveRecord::Base</text>
</g>
<!-- ActiveRecord::Base&#45;&gt;SiteSection -->
<g id="edge3" class="edge"><title>ActiveRecord::Base&#45;&gt;SiteSection</title>
<path fill="none" stroke="black" d="M392.655,-1415.22C375.643,-1407.23 353.89,-1398.15 333.5,-1393 292.81,-1382.72 179.85,-1399.11 145.5,-1375 116.275,-1354.48 97.3942,-1320.4 85.3646,-1288.19"/>
</g>
<!-- ActiveRecord::Base&#45;&gt;User -->
<g id="edge6" class="edge"><title>ActiveRecord::Base&#45;&gt;User</title>
<path fill="none" stroke="black" d="M388.944,-1415.5C370.625,-1405.92 348.809,-1392.17 333.5,-1375 328.099,-1368.94 322.99,-1362.46 318.168,-1355.68"/>
</g>
<!-- ActiveRecord::Base&#45;&gt;Item -->
<g id="edge8" class="edge"><title>ActiveRecord::Base&#45;&gt;Item</title>
<path fill="none" stroke="black" d="M423.5,-1413.78C423.5,-1376.11 423.5,-1283.54 423.5,-1206 423.5,-1206 423.5,-1206 423.5,-662 423.5,-614.47 410.961,-564.633 395.092,-520.591"/>
</g>
<!-- ActiveRecord::Base&#45;&gt;Person -->
<g id="edge9" class="edge"><title>ActiveRecord::Base&#45;&gt;Person</title>
<path fill="none" stroke="black" d="M402.952,-1414.51C391.769,-1404.35 378.769,-1390.35 371.5,-1375 309.865,-1244.86 356.474,-1195.06 327.5,-1054 324.08,-1037.35 319.875,-1019.86 315.447,-1002.85"/>
</g>
<!-- ActiveRecord::Base&#45;&gt;Artist -->
<g id="edge13" class="edge"><title>ActiveRecord::Base&#45;&gt;Artist</title>
<path fill="none" stroke="black" d="M390.239,-1415.4C373.474,-1407.94 352.678,-1399.29 333.5,-1393 266.203,-1370.93 225.738,-1408.77 178.5,-1356 175.556,-1352.71 149.648,-1136.86 133.792,-1002.69"/>
</g>
<!-- ActiveRecord::Base&#45;&gt;Attachment -->
<g id="edge14" class="edge"><title>ActiveRecord::Base&#45;&gt;Attachment</title>
<path fill="none" stroke="black" d="M428.39,-1413.95C438.653,-1376.6 461.5,-1284.64 461.5,-1206 461.5,-1206 461.5,-1206 461.5,-384 461.5,-319.378 447.354,-299.869 407.5,-249 376.325,-209.208 331.11,-175.624 291.757,-151.123"/>
</g>
<!-- ActiveRecord::Base&#45;&gt;FrontPage -->
<g id="edge15" class="edge"><title>ActiveRecord::Base&#45;&gt;FrontPage</title>
<path fill="none" stroke="black" d="M441.862,-1414.03C452.571,-1403.5 465.829,-1389.28 475.5,-1375 498.525,-1341 518.329,-1299.33 532.473,-1265.88"/>
</g>
<!-- ActiveRecord::Base&#45;&gt;ItemCategory -->
<g id="edge17" class="edge"><title>ActiveRecord::Base&#45;&gt;ItemCategory</title>
<path fill="none" stroke="black" d="M487.086,-1420.71C531.434,-1410.7 589.586,-1391.59 629.5,-1356 658.621,-1330.04 677.805,-1290.15 689.476,-1258.04"/>
</g>
<!-- ActiveRecord::Base&#45;&gt;Category -->
<g id="edge20" class="edge"><title>ActiveRecord::Base&#45;&gt;Category</title>
<path fill="none" stroke="black" d="M418.443,-1414C415.365,-1402.98 411.629,-1388.26 409.5,-1375 368.232,-1118.03 442.073,-1040.04 366.5,-791 362.71,-778.51 357.531,-765.905 351.675,-753.737"/>
</g>
<!-- ActiveRecord::Base&#45;&gt;Layout -->
<g id="edge22" class="edge"><title>ActiveRecord::Base&#45;&gt;Layout</title>
<path fill="none" stroke="black" d="M491.179,-1422.04C600.859,-1407.41 805.944,-1379.56 812.5,-1375 844.863,-1352.49 866.938,-1314.83 881.334,-1280.76"/>
</g>
<!-- ActiveRecord::Base&#45;&gt;LayoutPartial -->
<g id="edge23" class="edge"><title>ActiveRecord::Base&#45;&gt;LayoutPartial</title>
<path fill="none" stroke="black" d="M498.89,-1425.25C591.748,-1416.51 741.741,-1396.43 778.5,-1356 791.47,-1341.73 814.388,-1089.31 824.921,-965.446"/>
</g>
<!-- Object -->
<g id="node16" class="node"><title>Object</title>
<ellipse fill="none" stroke="black" cx="1027.5" cy="-1432" rx="34.394" ry="18"/>
<text text-anchor="middle" x="1027.5" y="-1428.3" font-family="Times,serif" font-size="14.00">Object</text>
</g>
<!-- Object&#45;&gt;Ability -->
<g id="edge16" class="edge"><title>Object&#45;&gt;Ability</title>
<path fill="none" stroke="black" d="M1027.5,-1413.72C1027.5,-1373.38 1027.5,-1273.05 1027.5,-1228.23"/>
</g>
</g>
</svg>
